<?xml version="1.0" encoding="UTF-8" standalone="no"?>
<!DOCTYPE svg PUBLIC "-//W3C//DTD SVG 1.1//EN"
 "http://www.w3.org/Graphics/SVG/1.1/DTD/svg11.dtd">
<!-- Generated by graphviz version 2.38.0 (20140413.2041)
 -->
<!-- Title: model Pages: 1 -->
<svg width="675pt" height="451pt"
 viewBox="0.00 0.00 675.14 450.60" xmlns="http://www.w3.org/2000/svg" xmlns:xlink="http://www.w3.org/1999/xlink">
<g id="graph0" class="graph" transform="scale(1 1) rotate(0) translate(4 446.6)">
<title>model</title>
<polygon fill="white" stroke="none" points="-4,4 -4,-446.6 671.145,-446.6 671.145,4 -4,4"/>
<!-- start_PharmacyPrescription_status -->
<g id="node1" class="node"><title>start_PharmacyPrescription_status</title>
<g id="a_node1"><a xlink:title="Class PharmacyPrescription, SM status, State start">
<ellipse fill="black" stroke="black" cx="269" cy="-435.4" rx="7.2" ry="7.2"/>
</a>
</g>
</g>
<!-- PharmacyPrescription_status_Input -->
<g id="node2" class="node"><title>PharmacyPrescription_status_Input</title>
<g id="a_node2"><a xlink:title="Class PharmacyPrescription, SM status, State Input&#13;Entry:
 &#160;&#160;setReinput(false);
 &#160;&#160;inputFunction();">
<path fill="none" stroke="black" d="M293,-391.2C293,-391.2 245,-391.2 245,-391.2 239,-391.2 233,-385.2 233,-379.2 233,-379.2 233,-367.2 233,-367.2 233,-361.2 239,-355.2 245,-355.2 245,-355.2 293,-355.2 293,-355.2 299,-355.2 305,-361.2 305,-367.2 305,-367.2 305,-379.2 305,-379.2 305,-385.2 299,-391.2 293,-391.2"/>
<text text-anchor="middle" x="269" y="-369" font-family="Times,serif" font-size="14.00">Input</text>
</a>
</g>
</g>
<!-- start_PharmacyPrescription_status&#45;&gt;PharmacyPrescription_status_Input -->
<g id="edge1" class="edge"><title>start_PharmacyPrescription_status&#45;&gt;PharmacyPrescription_status_Input</title>
<g id="a_edge1"><a xlink:title="start to Input">
<path fill="none" stroke="black" d="M269,-427.958C269,-421.587 269,-411.397 269,-401.593"/>
<polygon fill="black" stroke="black" points="272.5,-401.305 269,-391.305 265.5,-401.305 272.5,-401.305"/>
</a>
</g>
</g>
<!-- PharmacyPrescription_status_Adjudicate -->
<g id="node3" class="node"><title>PharmacyPrescription_status_Adjudicate</title>
<g id="a_node3"><a xlink:title="Class PharmacyPrescription, SM status, State Adjudicate&#13;Entry:
 &#160;&#160;setConfirm(false);
 &#160;&#160;setRebill(false);
 &#160;&#160;billingFunction();">
<path fill="none" stroke="black" d="M295.923,-302.4C295.923,-302.4 242.077,-302.4 242.077,-302.4 236.077,-302.4 230.077,-296.4 230.077,-290.4 230.077,-290.4 230.077,-278.4 230.077,-278.4 230.077,-272.4 236.077,-266.4 242.077,-266.4 242.077,-266.4 295.923,-266.4 295.923,-266.4 301.923,-266.4 307.923,-272.4 307.923,-278.4 307.923,-278.4 307.923,-290.4 307.923,-290.4 307.923,-296.4 301.923,-302.4 295.923,-302.4"/>
<text text-anchor="middle" x="269" y="-280.2" font-family="Times,serif" font-size="14.00">Adjudicate</text>
</a>
</g>
</g>
<!-- PharmacyPrescription_status_Input&#45;&gt;PharmacyPrescription_status_Adjudicate -->
<g id="edge4" class="edge"><title>PharmacyPrescription_status_Input&#45;&gt;PharmacyPrescription_status_Adjudicate</title>
<g id="a_edge4"><a xlink:title="From Input to Adjudicate on confirm&#13;Transition Action:
 &#160;&#160;&#160;&#160;setConfirm(true);">
<path fill="none" stroke="black" d="M232.926,-356.089C225.686,-351.113 219.029,-344.868 214.855,-337.2 209.064,-326.561 214.648,-316.809 224.099,-308.706"/>
<polygon fill="black" stroke="black" points="226.417,-311.344 232.364,-302.575 222.247,-305.722 226.417,-311.344"/>
</a>
</g>
<text text-anchor="middle" x="254.572" y="-324.6" font-family="Times,serif" font-size="14.00">confirm / {...}</text>
</g>
<!-- PharmacyPrescription_status_Cancelled -->
<g id="node6" class="node"><title>PharmacyPrescription_status_Cancelled</title>
<g id="a_node6"><a xlink:title="Class PharmacyPrescription, SM status, State Cancelled&#13;Entry:
 &#160;&#160;setCancel(false);
 &#160;&#160;cancelPrescription();">
<path fill="none" stroke="black" d="M175,-36C175,-36 127,-36 127,-36 121,-36 115,-30 115,-24 115,-24 115,-12 115,-12 115,-6 121,-0 127,-0 127,-0 175,-0 175,-0 181,-0 187,-6 187,-12 187,-12 187,-24 187,-24 187,-30 181,-36 175,-36"/>
<text text-anchor="middle" x="151" y="-13.8" font-family="Times,serif" font-size="14.00">Cancelled</text>
</a>
</g>
</g>
<!-- PharmacyPrescription_status_Input&#45;&gt;PharmacyPrescription_status_Cancelled -->
<g id="edge10" class="edge"><title>PharmacyPrescription_status_Input&#45;&gt;PharmacyPrescription_status_Cancelled</title>
<g id="a_edge10"><a xlink:title="From Input to Cancelled on cancel&#13;Transition Action:
 &#160;&#160;&#160;&#160;setCancel(true);">
<path fill="none" stroke="black" d="M232.721,-368.196C159.296,-359.081 0,-333.736 0,-285.4 0,-285.4 0,-285.4 0,-105.8 0,-56.848 60.3858,-35.0968 104.784,-25.7201"/>
<polygon fill="black" stroke="black" points="105.693,-29.1084 114.832,-23.7471 104.345,-22.2395 105.693,-29.1084"/>
</a>
</g>
<text text-anchor="middle" x="35.2884" y="-191.4" font-family="Times,serif" font-size="14.00">cancel / {...}</text>
</g>
<!-- PharmacyPrescription_status_Adjudicate&#45;&gt;PharmacyPrescription_status_Input -->
<g id="edge2" class="edge"><title>PharmacyPrescription_status_Adjudicate&#45;&gt;PharmacyPrescription_status_Input</title>
<g id="a_edge2"><a xlink:title="From Adjudicate to Input on modifyInput&#13;Transition Action:
 &#160;&#160;&#160;&#160;setModify(true);">
<path fill="none" stroke="black" d="M287.336,-302.758C291.671,-307.971 295.699,-314.016 298,-320.4 300.532,-327.424 300.532,-330.176 298,-337.2 296.813,-340.492 295.168,-343.694 293.258,-346.737"/>
<polygon fill="black" stroke="black" points="290.41,-344.703 287.336,-354.842 296.062,-348.832 290.41,-344.703"/>
</a>
</g>
<text text-anchor="middle" x="352.41" y="-324.6" font-family="Times,serif" font-size="14.00">modifyInput / {...}</text>
</g>
<!-- PharmacyPrescription_status_Adjudicate&#45;&gt;PharmacyPrescription_status_Adjudicate -->
<g id="edge5" class="edge"><title>PharmacyPrescription_status_Adjudicate&#45;&gt;PharmacyPrescription_status_Adjudicate</title>
<g id="a_edge5"><a xlink:title="From Adjudicate to Adjudicate on reBillChanges&#13;Transition Action:
 &#160;&#160;&#160;&#160;setRebill(true);">
<path fill="none" stroke="black" d="M307.964,-292.565C318.082,-292.063 325.711,-289.341 325.711,-284.4 325.711,-281.312 322.731,-279.09 318.025,-277.736"/>
<polygon fill="black" stroke="black" points="318.371,-274.249 307.964,-276.235 317.338,-281.172 318.371,-274.249"/>
</a>
</g>
<text text-anchor="middle" x="383.172" y="-280.2" font-family="Times,serif" font-size="14.00">reBillChanges / {...}</text>
</g>
<!-- PharmacyPrescription_status_Filling -->
<g id="node4" class="node"><title>PharmacyPrescription_status_Filling</title>
<g id="a_node4"><a xlink:title="Class PharmacyPrescription, SM status, State Filling&#13;Entry:
 &#160;&#160;setRefill(false);
 &#160;&#160;setConfirm(false);
 &#160;&#160;printPrescription();">
<path fill="none" stroke="black" d="M366,-213.6C366,-213.6 318,-213.6 318,-213.6 312,-213.6 306,-207.6 306,-201.6 306,-201.6 306,-189.6 306,-189.6 306,-183.6 312,-177.6 318,-177.6 318,-177.6 366,-177.6 366,-177.6 372,-177.6 378,-183.6 378,-189.6 378,-189.6 378,-201.6 378,-201.6 378,-207.6 372,-213.6 366,-213.6"/>
<text text-anchor="middle" x="342" y="-191.4" font-family="Times,serif" font-size="14.00">Filling</text>
</a>
</g>
</g>
<!-- PharmacyPrescription_status_Adjudicate&#45;&gt;PharmacyPrescription_status_Filling -->
<g id="edge7" class="edge"><title>PharmacyPrescription_status_Adjudicate&#45;&gt;PharmacyPrescription_status_Filling</title>
<g id="a_edge7"><a xlink:title="From Adjudicate to Filling on confirm&#13;Transition Action:
 &#160;&#160;&#160;&#160;setConfirm(true);">
<path fill="none" stroke="black" d="M283.422,-266.251C294.121,-253.53 308.872,-235.99 320.895,-221.695"/>
<polygon fill="black" stroke="black" points="323.85,-223.619 327.608,-213.713 318.492,-219.114 323.85,-223.619"/>
</a>
</g>
<text text-anchor="middle" x="352.572" y="-235.8" font-family="Times,serif" font-size="14.00">confirm / {...}</text>
</g>
<!-- PharmacyPrescription_status_Adjudicate&#45;&gt;PharmacyPrescription_status_Cancelled -->
<g id="edge11" class="edge"><title>PharmacyPrescription_status_Adjudicate&#45;&gt;PharmacyPrescription_status_Cancelled</title>
<g id="a_edge11"><a xlink:title="From Adjudicate to Cancelled on cancel&#13;Transition Action:
 &#160;&#160;&#160;&#160;setCancel(true);">
<path fill="none" stroke="black" d="M239.378,-266.22C207.112,-245.595 157.315,-207.692 136.423,-159.6 120.33,-122.552 130.956,-75.023 140.597,-45.8049"/>
<polygon fill="black" stroke="black" points="143.93,-46.8758 143.92,-36.281 137.321,-44.5695 143.93,-46.8758"/>
</a>
</g>
<text text-anchor="middle" x="172.288" y="-147" font-family="Times,serif" font-size="14.00">cancel / {...}</text>
</g>
<!-- PharmacyPrescription_status_Hold -->
<g id="node7" class="node"><title>PharmacyPrescription_status_Hold</title>
<g id="a_node7"><a xlink:title="Class PharmacyPrescription, SM status, State Hold&#13;Entry:
 &#160;&#160;setCancelUnfill(false);
 &#160;&#160;holdPrescription();">
<path fill="none" stroke="black" d="M370,-36C370,-36 322,-36 322,-36 316,-36 310,-30 310,-24 310,-24 310,-12 310,-12 310,-6 316,-0 322,-0 322,-0 370,-0 370,-0 376,-0 382,-6 382,-12 382,-12 382,-24 382,-24 382,-30 376,-36 370,-36"/>
<text text-anchor="middle" x="346" y="-13.8" font-family="Times,serif" font-size="14.00">Hold</text>
</a>
</g>
</g>
<!-- PharmacyPrescription_status_Adjudicate&#45;&gt;PharmacyPrescription_status_Hold -->
<g id="edge14" class="edge"><title>PharmacyPrescription_status_Adjudicate&#45;&gt;PharmacyPrescription_status_Hold</title>
<g id="a_edge14"><a xlink:title="From Adjudicate to Hold on cancelUnfill&#13;Transition Action:
 &#160;&#160;&#160;&#160;setCancelUnfill(true);">
<path fill="none" stroke="black" d="M257.137,-266.303C234.145,-230.856 188.672,-147.75 223,-88.8 239.578,-60.3302 272.569,-42.529 300.213,-32.0341"/>
<polygon fill="black" stroke="black" points="301.5,-35.2909 309.732,-28.6212 299.137,-28.7016 301.5,-35.2909"/>
</a>
</g>
<text text-anchor="middle" x="265.008" y="-147" font-family="Times,serif" font-size="14.00">cancelUnfill / {...}</text>
</g>
<!-- PharmacyPrescription_status_PharmacistCheck -->
<g id="node5" class="node"><title>PharmacyPrescription_status_PharmacistCheck</title>
<g id="a_node5"><a xlink:title="Class PharmacyPrescription, SM status, State PharmacistCheck&#13;Entry:
 &#160;&#160;setConfirm(false);
 &#160;&#160;printPrescription();">
<path fill="none" stroke="black" d="M569.969,-124.8C569.969,-124.8 480.031,-124.8 480.031,-124.8 474.031,-124.8 468.031,-118.8 468.031,-112.8 468.031,-112.8 468.031,-100.8 468.031,-100.8 468.031,-94.8 474.031,-88.8 480.031,-88.8 480.031,-88.8 569.969,-88.8 569.969,-88.8 575.969,-88.8 581.969,-94.8 581.969,-100.8 581.969,-100.8 581.969,-112.8 581.969,-112.8 581.969,-118.8 575.969,-124.8 569.969,-124.8"/>
<text text-anchor="middle" x="525" y="-102.6" font-family="Times,serif" font-size="14.00">PharmacistCheck</text>
</a>
</g>
</g>
<!-- PharmacyPrescription_status_Filling&#45;&gt;PharmacyPrescription_status_PharmacistCheck -->
<g id="edge9" class="edge"><title>PharmacyPrescription_status_Filling&#45;&gt;PharmacyPrescription_status_PharmacistCheck</title>
<g id="a_edge9"><a xlink:title="From Filling to PharmacistCheck on confirm&#13;Transition Action:
 &#160;&#160;&#160;&#160;setConfirm(true);">
<path fill="none" stroke="black" d="M347.814,-177.121C352.524,-165.652 360.296,-151.26 371.855,-142.8 402.015,-120.725 417.57,-133.152 454,-124.8 455.251,-124.513 456.514,-124.223 457.786,-123.929"/>
<polygon fill="black" stroke="black" points="458.725,-127.304 467.671,-121.627 457.138,-120.486 458.725,-127.304"/>
</a>
</g>
<text text-anchor="middle" x="411.572" y="-147" font-family="Times,serif" font-size="14.00">confirm / {...}</text>
</g>
<!-- PharmacyPrescription_status_Filling&#45;&gt;PharmacyPrescription_status_Cancelled -->
<g id="edge12" class="edge"><title>PharmacyPrescription_status_Filling&#45;&gt;PharmacyPrescription_status_Cancelled</title>
<g id="a_edge12"><a xlink:title="From Filling to Cancelled on cancel&#13;Transition Action:
 &#160;&#160;&#160;&#160;setCancel(true);">
<path fill="none" stroke="black" d="M329.685,-177.577C321.441,-166.866 309.946,-153.159 298,-142.8 286.66,-132.966 281.412,-133.832 269.423,-124.8 235.197,-99.0163 198.877,-65.5408 175.623,-43.2182"/>
<polygon fill="black" stroke="black" points="177.883,-40.5347 168.26,-36.1027 173.019,-45.5685 177.883,-40.5347"/>
</a>
</g>
<text text-anchor="middle" x="305.288" y="-102.6" font-family="Times,serif" font-size="14.00">cancel / {...}</text>
</g>
<!-- PharmacyPrescription_status_Filling&#45;&gt;PharmacyPrescription_status_Hold -->
<g id="edge15" class="edge"><title>PharmacyPrescription_status_Filling&#45;&gt;PharmacyPrescription_status_Hold</title>
<g id="a_edge15"><a xlink:title="From Filling to Hold on cancelUnfill&#13;Transition Action:
 &#160;&#160;&#160;&#160;setCancelUnfill(true);">
<path fill="none" stroke="black" d="M342.391,-177.443C343.084,-147.02 344.534,-83.3762 345.369,-46.6825"/>
<polygon fill="black" stroke="black" points="348.879,-46.3038 345.608,-36.2266 341.881,-46.1443 348.879,-46.3038"/>
</a>
</g>
<text text-anchor="middle" x="397.008" y="-102.6" font-family="Times,serif" font-size="14.00">cancelUnfill / {...}</text>
</g>
<!-- PharmacyPrescription_status_PharmacistCheck&#45;&gt;PharmacyPrescription_status_Input -->
<g id="edge3" class="edge"><title>PharmacyPrescription_status_PharmacistCheck&#45;&gt;PharmacyPrescription_status_Input</title>
<g id="a_edge3"><a xlink:title="From PharmacistCheck to Input on reinput&#13;Transition Action:
 &#160;&#160;&#160;&#160;setReinput(true);">
<path fill="none" stroke="black" d="M550.955,-125.064C578.173,-145.449 614.718,-180.747 597,-213.6 540.867,-317.682 391.787,-354.329 315.457,-366.526"/>
<polygon fill="black" stroke="black" points="314.545,-363.124 305.186,-368.089 315.599,-370.045 314.545,-363.124"/>
</a>
</g>
<text text-anchor="middle" x="623.242" y="-235.8" font-family="Times,serif" font-size="14.00">reinput / {...}</text>
</g>
<!-- PharmacyPrescription_status_PharmacistCheck&#45;&gt;PharmacyPrescription_status_Adjudicate -->
<g id="edge6" class="edge"><title>PharmacyPrescription_status_PharmacistCheck&#45;&gt;PharmacyPrescription_status_Adjudicate</title>
<g id="a_edge6"><a xlink:title="From PharmacistCheck to Adjudicate on rebill&#13;Transition Action:
 &#160;&#160;&#160;&#160;setRebill(true);">
<path fill="none" stroke="black" d="M536.388,-124.891C541.847,-135.374 546.024,-148.809 540,-159.6 503.352,-225.255 464.936,-218.377 396,-248.4 371.048,-259.267 341.851,-267.594 317.748,-273.394"/>
<polygon fill="black" stroke="black" points="316.7,-270.045 307.757,-275.725 318.291,-276.862 316.7,-270.045"/>
</a>
</g>
<text text-anchor="middle" x="561.187" y="-191.4" font-family="Times,serif" font-size="14.00">rebill / {...}</text>
</g>
<!-- PharmacyPrescription_status_PharmacistCheck&#45;&gt;PharmacyPrescription_status_Filling -->
<g id="edge8" class="edge"><title>PharmacyPrescription_status_PharmacistCheck&#45;&gt;PharmacyPrescription_status_Filling</title>
<g id="a_edge8"><a xlink:title="From PharmacistCheck to Filling on refill&#13;Transition Action:
 &#160;&#160;&#160;&#160;setRefill(true);">
<path fill="none" stroke="black" d="M501.988,-124.898C481.84,-139.858 455.662,-159.265 455,-159.6 433.884,-170.292 408.878,-178.451 387.765,-184.19"/>
<polygon fill="black" stroke="black" points="386.843,-180.814 378.058,-186.735 388.619,-187.585 386.843,-180.814"/>
</a>
</g>
<text text-anchor="middle" x="510.018" y="-147" font-family="Times,serif" font-size="14.00">refill / {...}</text>
</g>
<!-- PharmacyPrescription_status_PharmacistCheck&#45;&gt;PharmacyPrescription_status_Cancelled -->
<g id="edge13" class="edge"><title>PharmacyPrescription_status_PharmacistCheck&#45;&gt;PharmacyPrescription_status_Cancelled</title>
<g id="a_edge13"><a xlink:title="From PharmacistCheck to Cancelled on cancel&#13;Transition Action:
 &#160;&#160;&#160;&#160;setCancel(true);">
<path fill="none" stroke="black" d="M467.659,-92.0258C463.039,-90.9295 458.442,-89.8434 454,-88.8 405.477,-77.4022 269.29,-46.1271 197.163,-29.5831"/>
<polygon fill="black" stroke="black" points="197.534,-26.0772 187.004,-27.2531 195.969,-32.9001 197.534,-26.0772"/>
</a>
</g>
<text text-anchor="middle" x="410.288" y="-58.2" font-family="Times,serif" font-size="14.00">cancel / {...}</text>
</g>
<!-- PharmacyPrescription_status_PharmacistCheck&#45;&gt;PharmacyPrescription_status_Hold -->
<g id="edge16" class="edge"><title>PharmacyPrescription_status_PharmacistCheck&#45;&gt;PharmacyPrescription_status_Hold</title>
<g id="a_edge16"><a xlink:title="From PharmacistCheck to Hold on cancelUnfill&#13;Transition Action:
 &#160;&#160;&#160;&#160;setCancelUnfill(true);">
<path fill="none" stroke="black" d="M496.152,-88.6472C487.543,-83.2115 478.213,-76.9975 469.984,-70.8 460.984,-64.0217 460.76,-59.6285 451,-54 432.714,-43.4551 410.788,-35.5154 391.712,-29.8866"/>
<polygon fill="black" stroke="black" points="392.606,-26.5022 382.031,-27.1522 390.703,-33.2386 392.606,-26.5022"/>
</a>
</g>
<text text-anchor="middle" x="522.008" y="-58.2" font-family="Times,serif" font-size="14.00">cancelUnfill / {...}</text>
</g>
<!-- PharmacyPrescription_status_WaitingForPickup -->
<g id="node8" class="node"><title>PharmacyPrescription_status_WaitingForPickup</title>
<g id="a_node8"><a xlink:title="Class PharmacyPrescription, SM status, State WaitingForPickup&#13;Entry:
 &#160;&#160;setConfirm(false);
 &#160;&#160;pickUp();">
<path fill="none" stroke="black" d="M647.933,-36C647.933,-36 552.067,-36 552.067,-36 546.067,-36 540.067,-30 540.067,-24 540.067,-24 540.067,-12 540.067,-12 540.067,-6 546.067,-0 552.067,-0 552.067,-0 647.933,-0 647.933,-0 653.933,-0 659.933,-6 659.933,-12 659.933,-12 659.933,-24 659.933,-24 659.933,-30 653.933,-36 647.933,-36"/>
<text text-anchor="middle" x="600" y="-13.8" font-family="Times,serif" font-size="14.00">WaitingForPickup</text>
</a>
</g>
</g>
<!-- PharmacyPrescription_status_PharmacistCheck&#45;&gt;PharmacyPrescription_status_WaitingForPickup -->
<g id="edge17" class="edge"><title>PharmacyPrescription_status_PharmacistCheck&#45;&gt;PharmacyPrescription_status_WaitingForPickup</title>
<g id="a_edge17"><a xlink:title="From PharmacistCheck to WaitingForPickup on confirm&#13;Transition Action:
 &#160;&#160;&#160;&#160;setConfirm(true);">
<path fill="none" stroke="black" d="M557.427,-88.7164C564.88,-83.6876 572.284,-77.6634 578,-70.8 584.022,-63.5688 588.626,-54.4467 592.028,-45.8802"/>
<polygon fill="black" stroke="black" points="595.409,-46.82 595.481,-36.2254 588.818,-44.4625 595.409,-46.82"/>
</a>
</g>
<text text-anchor="middle" x="627.572" y="-58.2" font-family="Times,serif" font-size="14.00">confirm / {...}</text>
</g>
</g>
</svg>
